# Blender 4.3.2
# www.blender.org
o Iceberg3
v 0.506198 -0.233441 0.965992
v 0.506198 0.243786 0.965992
v -0.645044 -0.233441 0.449285
v -0.645044 0.321675 0.449285
v -0.226769 -0.233441 -0.301810
v -0.226769 0.362819 -0.301810
v -0.503129 -0.233441 -0.268602
v -0.503129 0.321675 -0.268602
v 0.861482 -0.233441 -0.004038
v 0.861482 0.321675 -0.004038
v 0.279142 0.181508 -0.204046
v 0.279142 -0.233441 -0.204046
v -0.069423 0.461051 0.741274
v -0.574086 0.321675 0.090342
v -0.340353 0.124905 -0.208930
v 0.164310 0.481623 -0.102329
v 0.001534 0.268488 0.084681
v -0.069423 -0.233441 0.741274
v -0.357233 0.113805 0.744104
v 0.218387 0.113805 0.738444
vn 0.3273 -0.3019 0.8954
vn 0.2805 0.4703 0.8367
vn -0.9308 -0.1018 0.3512
vn -0.8007 0.5445 0.2499
vn 0.0272 -0.2397 -0.9705
vn -0.5183 0.7250 -0.4535
vn -0.6799 -0.0000 -0.7333
vn -0.3399 0.6394 -0.6896
vn 0.7378 -0.5763 -0.3514
vn 0.7744 0.5314 -0.3434
vn 0.2597 0.1656 -0.9514
vn 0.1863 -0.6917 -0.6977
vn 0.0113 0.8244 0.5659
vn -0.6864 0.6999 -0.1975
vn 0.1644 0.4606 -0.8723
vn -0.0960 0.9492 -0.2996
vn -0.2514 0.9655 0.0676
vn -0.2319 -0.0223 0.9725
vn -0.4041 0.0298 0.9142
vn -0.3481 -0.0487 0.9362
vt -0.103933 1.112816
vt -0.256502 0.851276
vt -0.014168 0.687515
vt 1.095489 1.041613
vt 1.095489 0.800394
vt 1.461460 0.559174
vt 0.588978 0.508463
vt 0.461243 0.622877
vt 0.219594 0.681297
vt 0.492193 1.018920
vt 0.219594 1.020344
vt 0.224344 1.425032
vt 0.567923 0.889019
vt 1.044139 1.240228
vt 0.729519 0.559174
vt 1.095489 0.559174
vt 0.219594 -0.449958
vt -0.453239 -0.044110
vt -0.461460 -0.449958
vt 0.355100 0.256893
vt 0.729519 -0.032355
vt 0.490792 0.286401
vt 0.729519 -0.449958
vt 0.947362 -0.355417
vt 0.729519 -0.043130
vt 1.132272 0.158778
vt 1.016075 0.559174
vt 1.165205 -0.260876
vt 1.165205 0.439330
vt 1.419860 0.120990
vt 1.337943 0.409162
vt 1.248252 0.144686
vt 1.165205 -0.449958
vt -0.461460 1.120793
vt -0.461460 0.697495
vt -0.145651 0.291241
vt -0.219126 0.533735
vt -0.453013 0.298099
vt 1.461460 1.041613
vt 1.095489 0.559174
vt 0.224297 0.510367
vt 0.611305 0.679252
vt 0.589025 1.423128
vt 0.729519 1.240228
vt -0.399053 0.291241
vt 0.219594 0.508463
vt 0.219594 -0.449958
s 1
f 4/1/4 19/2/19 13/3/13
f 4/4/4 14/5/14 7/6/7
f 8/7/8 15/8/15 5/9/5
f 5/9/5 11/10/11 12/11/12
f 11/10/11 9/12/9 12/11/12
f 8/7/8 17/13/17 15/8/15
f 2/14/2 9/15/9 10/16/10
f 1/17/1 12/18/12 9/19/9
f 16/20/16 10/21/10 11/22/11
f 8/23/8 14/24/14 17/25/17
f 17/25/17 13/26/13 2/27/2
f 17/25/17 14/24/14 13/26/13
f 14/24/14 4/28/4 13/26/13
f 15/29/15 16/30/16 6/31/6
f 15/29/15 17/32/17 16/30/16
f 17/32/17 2/33/2 16/30/16
f 3/34/3 18/35/18 19/2/19
f 2/36/2 20/37/20 1/38/1
f 19/2/19 20/37/20 13/3/13
f 19/2/19 18/35/18 20/37/20
f 18/35/18 1/38/1 20/37/20
f 4/1/4 3/34/3 19/2/19
f 7/6/7 3/39/3 4/4/4
f 14/5/14 8/40/8 7/6/7
f 5/9/5 7/41/7 8/7/8
f 15/8/15 6/42/6 5/9/5
f 5/9/5 6/42/6 11/10/11
f 11/10/11 10/43/10 9/12/9
f 2/14/2 1/44/1 9/15/9
f 1/17/1 5/45/5 12/18/12
f 11/22/11 6/46/6 16/20/16
f 16/20/16 2/47/2 10/21/10
f 2/36/2 13/3/13 20/37/20
